<?xml version="1.0" encoding="UTF-8"?>
<svg width="345px" height="161px" viewBox="0 0 345 161" xmlns="http://www.w3.org/2000/svg" xmlns:xlink="http://www.w3.org/1999/xlink" version="1.1">
 <!-- Generated by Pixelmator Pro 1.2 -->
 <path id="path" d="M115.887 90.223 C114.571 90.392 112.808 90.646 110.612 91.009 108.391 91.371 106.592 91.878 105.24 92.529 103.598 93.362 102.45 94.522 101.762 96.042 101.074 97.551 100.737 99.326 100.737 101.365 L100.737 110.444 C100.737 117.048 100.774 121.502 100.858 123.807 100.942 126.125 101.039 128.02 101.148 129.505 93.892 132.8 86.661 135.337 79.441 137.099 72.247 138.862 65.186 139.743 58.255 139.743 50.819 139.743 43.685 138.329 36.803 135.53 29.923 132.717 23.923 128.721 18.793 123.553 13.602 118.327 9.498 111.965 6.431 104.48 3.378 96.996 1.855 88.618 1.855 79.372 1.855 70.45 3.304 62.18 6.226 54.551 9.147 46.934 13.276 40.319 18.624 34.693 23.815 29.189 29.995 24.915 37.166 21.86 44.349 18.794 52.026 17.273 60.224 17.273 66.767 17.273 72.464 18.07 77.33 19.663 82.182 21.269 86.456 23.188 90.174 25.445 L93.529 19.833 100.072 19.833 100.821 60.768 94.097 60.768 C92.962 56.253 91.538 51.81 89.848 47.441 88.146 43.058 85.961 39.147 83.293 35.671 80.613 32.206 77.353 29.442 73.491 27.378 69.639 25.325 65.04 24.287 59.692 24.287 53.837 24.287 48.622 25.483 44.035 27.873 39.447 30.275 35.452 33.835 32.072 38.58 28.728 43.142 26.157 48.841 24.358 55.674 22.56 62.494 21.653 70.125 21.653 78.55 21.653 85.975 22.547 92.988 24.322 99.567 26.108 106.147 28.679 111.832 32.072 116.625 35.452 121.514 39.689 125.376 44.771 128.19 49.854 130.991 55.625 132.391 62.07 132.391 66.875 132.391 71.269 131.654 75.229 130.17 79.188 128.685 81.978 127.115 83.631 125.462 84.066 122.6 84.295 119.715 84.331 116.794 84.355 113.872 84.368 111.398 84.368 109.37 L84.368 102.935 C84.368 100.618 84.041 98.565 83.426 96.779 82.798 95.004 81.494 93.688 79.527 92.867 77.739 92.034 75.289 91.418 72.21 91.009 69.12 90.597 66.718 90.332 64.956 90.223 L64.956 84.199 115.887 84.199 115.887 90.223 Z M191.639 89.065 L174.05 43.626 156.69 89.065 191.639 89.065 Z M238.369 136.93 L190.093 136.93 190.093 131.063 C194.354 130.798 197.88 130.242 200.693 129.421 203.492 128.587 204.906 127.573 204.906 126.367 204.906 125.871 204.857 125.269 204.736 124.544 204.627 123.832 204.459 123.204 204.253 122.649 L194.632 96.405 153.854 96.405 C152.319 100.255 151.089 103.623 150.135 106.473 149.157 109.333 148.299 111.977 147.539 114.404 146.827 116.757 146.344 118.689 146.067 120.174 145.79 121.659 145.656 122.865 145.656 123.807 145.656 126.004 147.371 127.719 150.811 128.926 154.251 130.133 158.127 130.845 162.436 131.063 L162.436 136.93 118.688 136.93 118.688 131.063 C120.112 130.954 121.886 130.64 124.011 130.121 126.136 129.589 127.887 128.89 129.251 128.02 131.435 126.536 133.125 124.979 134.332 123.349 135.528 121.731 136.699 119.486 137.846 116.625 143.677 101.934 150.135 85.431 157.173 67.118 164.212 48.792 170.476 32.483 175.993 18.178 L182.548 18.178 221.263 119.184 C222.072 121.333 223.013 123.06 224.051 124.388 225.09 125.703 226.538 126.994 228.385 128.262 229.64 129.035 231.27 129.675 233.298 130.205 235.314 130.724 237.016 131.014 238.369 131.063 L238.369 136.93 Z M298.705 139.731 C291.774 139.731 285.135 138.354 278.786 135.602 272.424 132.849 266.798 128.89 261.897 123.711 257.044 118.533 253.168 112.218 250.271 104.757 247.386 97.298 245.95 88.895 245.95 79.528 245.95 70.172 247.362 61.685 250.187 54.056 253.036 46.427 256.96 39.871 261.969 34.355 266.93 28.91 272.799 24.697 279.558 21.728 286.319 18.758 293.537 17.261 301.227 17.261 306.961 17.261 312.128 17.985 316.764 19.41 321.412 20.846 325.818 22.851 330.019 25.434 L333.375 19.821 339.917 19.821 340.666 61.577 333.942 61.577 C333.073 57.509 331.757 53.091 330.019 48.334 328.268 43.577 326.228 39.545 323.886 36.25 321.266 32.507 318.164 29.575 314.567 27.462 310.97 25.337 306.852 24.287 302.216 24.287 296.942 24.287 292.004 25.469 287.453 27.824 282.901 30.202 278.967 33.691 275.647 38.326 272.484 42.781 270.009 48.455 268.211 55.335 266.412 62.217 265.507 69.895 265.507 78.37 265.507 85.865 266.449 92.734 268.318 98.988 270.214 105.229 272.894 110.721 276.384 115.454 279.872 120.138 284.001 123.795 288.781 126.439 293.537 129.082 298.872 130.41 304.764 130.41 309.171 130.41 313.239 129.699 316.945 128.298 320.651 126.899 323.862 125.039 326.602 122.733 329.319 120.307 331.709 117.566 333.786 114.476 335.862 111.398 337.551 108.042 338.855 104.408 L345 107.378 C340.304 118.991 334.099 127.285 326.348 132.258 318.599 137.243 309.389 139.731 298.705 139.731" fill="#ffffff" fill-opacity="1" stroke="none"/>
</svg>
